<svg xmlns="http://www.w3.org/2000/svg" xmlns:xlink="http://www.w3.org/1999/xlink" width="500" zoomAndPan="magnify" viewBox="0 0 375 374.999991" height="500" preserveAspectRatio="xMidYMid meet" version="1.0"><defs><g/><clipPath id="e34fe4547c"><path d="M 187 59 L 261.929688 59 L 261.929688 146 L 187 146 Z M 187 59 " clip-rule="nonzero"/></clipPath><clipPath id="5fbaae5ecf"><path d="M 187 145 L 261.929688 145 L 261.929688 231 L 187 231 Z M 187 145 " clip-rule="nonzero"/></clipPath><clipPath id="71a2cde288"><path d="M 187 230 L 261.929688 230 L 261.929688 317 L 187 317 Z M 187 230 " clip-rule="nonzero"/></clipPath><clipPath id="04c0a89bf1"><path d="M 113.429688 102 L 188 102 L 188 188 L 113.429688 188 Z M 113.429688 102 " clip-rule="nonzero"/></clipPath><clipPath id="b29c885231"><path d="M 113.429688 59 L 188 59 L 188 146 L 113.429688 146 Z M 113.429688 59 " clip-rule="nonzero"/></clipPath><clipPath id="7ba167cd15"><path d="M 113.429688 145 L 188 145 L 188 231 L 113.429688 231 Z M 113.429688 145 " clip-rule="nonzero"/></clipPath><clipPath id="f1e59a4cd5"><path d="M 113.429688 230 L 188 230 L 188 317 L 113.429688 317 Z M 113.429688 230 " clip-rule="nonzero"/></clipPath><clipPath id="fdd083ede5"><path d="M 187 187 L 261.929688 187 L 261.929688 274 L 187 274 Z M 187 187 " clip-rule="nonzero"/></clipPath><clipPath id="e96792ade5"><path d="M 0.601562 1 L 13 1 L 13 3.558594 L 0.601562 3.558594 Z M 0.601562 1 " clip-rule="nonzero"/></clipPath><clipPath id="17ea479957"><rect x="0" width="14" y="0" height="4"/></clipPath></defs><g clip-path="url(#e34fe4547c)"><path fill="#fbccd5" d="M 261.996094 102.167969 L 187.707031 59.335938 L 187.707031 145.011719 Z M 261.996094 102.167969 " fill-opacity="1" fill-rule="nonzero"/></g><g clip-path="url(#5fbaae5ecf)"><path fill="#ed2730" d="M 261.996094 187.855469 L 187.707031 145.011719 L 187.707031 230.699219 Z M 261.996094 187.855469 " fill-opacity="1" fill-rule="nonzero"/></g><g clip-path="url(#71a2cde288)"><path fill="#a71c22" d="M 261.996094 273.546875 L 187.707031 230.699219 L 187.707031 316.375 Z M 261.996094 273.546875 " fill-opacity="1" fill-rule="nonzero"/></g><g clip-path="url(#04c0a89bf1)"><path fill="#f26279" d="M 187.652344 145.011719 L 113.363281 102.167969 L 113.363281 187.855469 Z M 187.652344 145.011719 " fill-opacity="1" fill-rule="nonzero"/></g><g clip-path="url(#b29c885231)"><path fill="#f795a6" d="M 113.363281 102.167969 L 187.652344 59.335938 L 187.652344 145.011719 Z M 113.363281 102.167969 " fill-opacity="1" fill-rule="nonzero"/></g><g clip-path="url(#7ba167cd15)"><path fill="#f03d4e" d="M 113.363281 187.855469 L 187.652344 145.011719 L 187.652344 230.699219 Z M 113.363281 187.855469 " fill-opacity="1" fill-rule="nonzero"/></g><g clip-path="url(#f1e59a4cd5)"><path fill="#7c161c" d="M 113.363281 273.546875 L 187.652344 230.699219 L 187.652344 316.375 Z M 113.363281 273.546875 " fill-opacity="1" fill-rule="nonzero"/></g><g clip-path="url(#fdd083ede5)"><path fill="#d31f26" d="M 187.707031 230.699219 L 261.996094 187.855469 L 261.996094 273.546875 Z M 187.707031 230.699219 " fill-opacity="1" fill-rule="nonzero"/></g><g transform="matrix(1, 0, 0, 1, 33, 367)"><g clip-path="url(#17ea479957)"><g clip-path="url(#e96792ade5)"><g fill="#000000" fill-opacity="1"><g transform="translate(0.602624, 2.95687)"><g><path d="M 1.203125 0 L 0.953125 0 L 0.859375 -0.296875 L 0.375 -0.296875 L 0.28125 0 L 0.015625 0 L 0.453125 -1.265625 L 0.78125 -1.265625 Z M 0.59375 -1 L 0.4375 -0.5 L 0.78125 -0.5 L 0.625 -1 Z M 0.59375 -1 "/></g></g><g transform="translate(1.826812, 2.95687)"><g><path d="M 0.46875 0.015625 C 0.394531 0.015625 0.328125 0 0.265625 -0.03125 C 0.210938 -0.0703125 0.164062 -0.128906 0.125 -0.203125 C 0.09375 -0.273438 0.078125 -0.363281 0.078125 -0.46875 C 0.078125 -0.582031 0.09375 -0.675781 0.125 -0.75 C 0.164062 -0.820312 0.210938 -0.875 0.265625 -0.90625 C 0.328125 -0.945312 0.398438 -0.96875 0.484375 -0.96875 C 0.546875 -0.96875 0.597656 -0.957031 0.640625 -0.9375 C 0.679688 -0.914062 0.71875 -0.882812 0.75 -0.84375 L 0.765625 -0.84375 L 0.765625 -1.328125 L 1 -1.328125 L 1 0 L 0.765625 0 L 0.765625 -0.125 L 0.75 -0.125 C 0.71875 -0.0820312 0.675781 -0.046875 0.625 -0.015625 C 0.582031 0.00390625 0.53125 0.015625 0.46875 0.015625 Z M 0.546875 -0.1875 C 0.609375 -0.1875 0.660156 -0.207031 0.703125 -0.25 C 0.742188 -0.300781 0.765625 -0.375 0.765625 -0.46875 C 0.765625 -0.570312 0.742188 -0.644531 0.703125 -0.6875 C 0.660156 -0.738281 0.609375 -0.765625 0.546875 -0.765625 C 0.472656 -0.765625 0.414062 -0.738281 0.375 -0.6875 C 0.34375 -0.644531 0.328125 -0.570312 0.328125 -0.46875 C 0.328125 -0.375 0.34375 -0.300781 0.375 -0.25 C 0.414062 -0.207031 0.472656 -0.1875 0.546875 -0.1875 Z M 0.546875 -0.1875 "/></g></g><g transform="translate(2.962514, 2.95687)"><g><path d="M 0.46875 0.015625 C 0.394531 0.015625 0.328125 0 0.265625 -0.03125 C 0.210938 -0.0703125 0.164062 -0.128906 0.125 -0.203125 C 0.09375 -0.273438 0.078125 -0.363281 0.078125 -0.46875 C 0.078125 -0.582031 0.09375 -0.675781 0.125 -0.75 C 0.164062 -0.820312 0.210938 -0.875 0.265625 -0.90625 C 0.328125 -0.945312 0.398438 -0.96875 0.484375 -0.96875 C 0.546875 -0.96875 0.597656 -0.957031 0.640625 -0.9375 C 0.679688 -0.914062 0.71875 -0.882812 0.75 -0.84375 L 0.765625 -0.84375 L 0.765625 -1.328125 L 1 -1.328125 L 1 0 L 0.765625 0 L 0.765625 -0.125 L 0.75 -0.125 C 0.71875 -0.0820312 0.675781 -0.046875 0.625 -0.015625 C 0.582031 0.00390625 0.53125 0.015625 0.46875 0.015625 Z M 0.546875 -0.1875 C 0.609375 -0.1875 0.660156 -0.207031 0.703125 -0.25 C 0.742188 -0.300781 0.765625 -0.375 0.765625 -0.46875 C 0.765625 -0.570312 0.742188 -0.644531 0.703125 -0.6875 C 0.660156 -0.738281 0.609375 -0.765625 0.546875 -0.765625 C 0.472656 -0.765625 0.414062 -0.738281 0.375 -0.6875 C 0.34375 -0.644531 0.328125 -0.570312 0.328125 -0.46875 C 0.328125 -0.375 0.34375 -0.300781 0.375 -0.25 C 0.414062 -0.207031 0.472656 -0.1875 0.546875 -0.1875 Z M 0.546875 -0.1875 "/></g></g><g transform="translate(4.098217, 2.95687)"><g/></g><g transform="translate(4.513152, 2.95687)"><g><path d="M 0.375 0.015625 C 0.3125 0.015625 0.253906 0.00390625 0.203125 -0.015625 C 0.160156 -0.0351562 0.128906 -0.0664062 0.109375 -0.109375 C 0.0859375 -0.148438 0.078125 -0.203125 0.078125 -0.265625 C 0.078125 -0.328125 0.0859375 -0.375 0.109375 -0.40625 C 0.128906 -0.445312 0.164062 -0.476562 0.21875 -0.5 C 0.269531 -0.53125 0.335938 -0.550781 0.421875 -0.5625 C 0.472656 -0.570312 0.515625 -0.582031 0.546875 -0.59375 C 0.578125 -0.601562 0.597656 -0.613281 0.609375 -0.625 C 0.617188 -0.644531 0.625 -0.664062 0.625 -0.6875 C 0.625 -0.71875 0.613281 -0.738281 0.59375 -0.75 C 0.570312 -0.769531 0.535156 -0.78125 0.484375 -0.78125 C 0.429688 -0.78125 0.378906 -0.765625 0.328125 -0.734375 C 0.285156 -0.710938 0.25 -0.679688 0.21875 -0.640625 L 0.1875 -0.640625 L 0.09375 -0.796875 C 0.144531 -0.847656 0.203125 -0.890625 0.265625 -0.921875 C 0.335938 -0.953125 0.414062 -0.96875 0.5 -0.96875 C 0.625 -0.96875 0.710938 -0.941406 0.765625 -0.890625 C 0.828125 -0.835938 0.859375 -0.757812 0.859375 -0.65625 L 0.859375 -0.25 C 0.859375 -0.207031 0.875 -0.1875 0.90625 -0.1875 C 0.925781 -0.1875 0.941406 -0.1875 0.953125 -0.1875 L 0.96875 -0.1875 L 0.984375 -0.015625 C 0.972656 -0.015625 0.953125 -0.0078125 0.921875 0 C 0.898438 0 0.875 0 0.84375 0 C 0.789062 0 0.75 -0.0078125 0.71875 -0.03125 C 0.6875 -0.0507812 0.664062 -0.0820312 0.65625 -0.125 L 0.625 -0.125 C 0.582031 -0.03125 0.5 0.015625 0.375 0.015625 Z M 0.453125 -0.15625 C 0.503906 -0.15625 0.546875 -0.171875 0.578125 -0.203125 C 0.609375 -0.242188 0.625 -0.300781 0.625 -0.375 L 0.625 -0.46875 L 0.609375 -0.46875 C 0.597656 -0.457031 0.578125 -0.445312 0.546875 -0.4375 C 0.523438 -0.4375 0.492188 -0.429688 0.453125 -0.421875 C 0.398438 -0.410156 0.363281 -0.394531 0.34375 -0.375 C 0.320312 -0.351562 0.3125 -0.320312 0.3125 -0.28125 C 0.3125 -0.238281 0.320312 -0.207031 0.34375 -0.1875 C 0.363281 -0.164062 0.398438 -0.15625 0.453125 -0.15625 Z M 0.453125 -0.15625 "/></g></g><g transform="translate(5.512261, 2.95687)"><g/></g><g transform="translate(5.927196, 2.95687)"><g><path d="M 0.140625 0 L 0.140625 -1.328125 L 0.375 -1.328125 L 0.375 -0.828125 L 0.390625 -0.828125 C 0.421875 -0.867188 0.457031 -0.898438 0.5 -0.921875 C 0.550781 -0.953125 0.609375 -0.96875 0.671875 -0.96875 C 0.878906 -0.96875 0.984375 -0.847656 0.984375 -0.609375 L 0.984375 0 L 0.75 0 L 0.75 -0.578125 C 0.75 -0.640625 0.734375 -0.6875 0.703125 -0.71875 C 0.679688 -0.75 0.644531 -0.765625 0.59375 -0.765625 C 0.53125 -0.765625 0.476562 -0.742188 0.4375 -0.703125 C 0.394531 -0.660156 0.375 -0.59375 0.375 -0.5 L 0.375 0 Z M 0.140625 0 "/></g></g><g transform="translate(7.037126, 2.95687)"><g><path d="M 0.9375 -0.421875 L 0.328125 -0.421875 C 0.335938 -0.335938 0.359375 -0.273438 0.390625 -0.234375 C 0.429688 -0.203125 0.488281 -0.1875 0.5625 -0.1875 C 0.613281 -0.1875 0.65625 -0.195312 0.6875 -0.21875 C 0.726562 -0.238281 0.757812 -0.269531 0.78125 -0.3125 L 0.796875 -0.3125 L 0.953125 -0.203125 C 0.921875 -0.140625 0.875 -0.0859375 0.8125 -0.046875 C 0.75 -0.00390625 0.664062 0.015625 0.5625 0.015625 C 0.46875 0.015625 0.382812 0 0.3125 -0.03125 C 0.238281 -0.0703125 0.179688 -0.128906 0.140625 -0.203125 C 0.0976562 -0.273438 0.078125 -0.363281 0.078125 -0.46875 C 0.078125 -0.582031 0.0976562 -0.675781 0.140625 -0.75 C 0.179688 -0.820312 0.238281 -0.875 0.3125 -0.90625 C 0.382812 -0.945312 0.460938 -0.96875 0.546875 -0.96875 C 0.679688 -0.96875 0.785156 -0.929688 0.859375 -0.859375 C 0.929688 -0.785156 0.96875 -0.679688 0.96875 -0.546875 C 0.96875 -0.492188 0.960938 -0.457031 0.953125 -0.4375 Z M 0.734375 -0.578125 C 0.734375 -0.648438 0.71875 -0.703125 0.6875 -0.734375 C 0.65625 -0.765625 0.609375 -0.78125 0.546875 -0.78125 C 0.421875 -0.78125 0.347656 -0.710938 0.328125 -0.578125 Z M 0.734375 -0.578125 "/></g></g><g transform="translate(8.067162, 2.95687)"><g><path d="M 0.375 0.015625 C 0.3125 0.015625 0.253906 0.00390625 0.203125 -0.015625 C 0.160156 -0.0351562 0.128906 -0.0664062 0.109375 -0.109375 C 0.0859375 -0.148438 0.078125 -0.203125 0.078125 -0.265625 C 0.078125 -0.328125 0.0859375 -0.375 0.109375 -0.40625 C 0.128906 -0.445312 0.164062 -0.476562 0.21875 -0.5 C 0.269531 -0.53125 0.335938 -0.550781 0.421875 -0.5625 C 0.472656 -0.570312 0.515625 -0.582031 0.546875 -0.59375 C 0.578125 -0.601562 0.597656 -0.613281 0.609375 -0.625 C 0.617188 -0.644531 0.625 -0.664062 0.625 -0.6875 C 0.625 -0.71875 0.613281 -0.738281 0.59375 -0.75 C 0.570312 -0.769531 0.535156 -0.78125 0.484375 -0.78125 C 0.429688 -0.78125 0.378906 -0.765625 0.328125 -0.734375 C 0.285156 -0.710938 0.25 -0.679688 0.21875 -0.640625 L 0.1875 -0.640625 L 0.09375 -0.796875 C 0.144531 -0.847656 0.203125 -0.890625 0.265625 -0.921875 C 0.335938 -0.953125 0.414062 -0.96875 0.5 -0.96875 C 0.625 -0.96875 0.710938 -0.941406 0.765625 -0.890625 C 0.828125 -0.835938 0.859375 -0.757812 0.859375 -0.65625 L 0.859375 -0.25 C 0.859375 -0.207031 0.875 -0.1875 0.90625 -0.1875 C 0.925781 -0.1875 0.941406 -0.1875 0.953125 -0.1875 L 0.96875 -0.1875 L 0.984375 -0.015625 C 0.972656 -0.015625 0.953125 -0.0078125 0.921875 0 C 0.898438 0 0.875 0 0.84375 0 C 0.789062 0 0.75 -0.0078125 0.71875 -0.03125 C 0.6875 -0.0507812 0.664062 -0.0820312 0.65625 -0.125 L 0.625 -0.125 C 0.582031 -0.03125 0.5 0.015625 0.375 0.015625 Z M 0.453125 -0.15625 C 0.503906 -0.15625 0.546875 -0.171875 0.578125 -0.203125 C 0.609375 -0.242188 0.625 -0.300781 0.625 -0.375 L 0.625 -0.46875 L 0.609375 -0.46875 C 0.597656 -0.457031 0.578125 -0.445312 0.546875 -0.4375 C 0.523438 -0.4375 0.492188 -0.429688 0.453125 -0.421875 C 0.398438 -0.410156 0.363281 -0.394531 0.34375 -0.375 C 0.320312 -0.351562 0.3125 -0.320312 0.3125 -0.28125 C 0.3125 -0.238281 0.320312 -0.207031 0.34375 -0.1875 C 0.363281 -0.164062 0.398438 -0.15625 0.453125 -0.15625 Z M 0.453125 -0.15625 "/></g></g><g transform="translate(9.06627, 2.95687)"><g><path d="M 0.46875 0.015625 C 0.394531 0.015625 0.328125 0 0.265625 -0.03125 C 0.210938 -0.0703125 0.164062 -0.128906 0.125 -0.203125 C 0.09375 -0.273438 0.078125 -0.363281 0.078125 -0.46875 C 0.078125 -0.582031 0.09375 -0.675781 0.125 -0.75 C 0.164062 -0.820312 0.210938 -0.875 0.265625 -0.90625 C 0.328125 -0.945312 0.398438 -0.96875 0.484375 -0.96875 C 0.546875 -0.96875 0.597656 -0.957031 0.640625 -0.9375 C 0.679688 -0.914062 0.71875 -0.882812 0.75 -0.84375 L 0.765625 -0.84375 L 0.765625 -1.328125 L 1 -1.328125 L 1 0 L 0.765625 0 L 0.765625 -0.125 L 0.75 -0.125 C 0.71875 -0.0820312 0.675781 -0.046875 0.625 -0.015625 C 0.582031 0.00390625 0.53125 0.015625 0.46875 0.015625 Z M 0.546875 -0.1875 C 0.609375 -0.1875 0.660156 -0.207031 0.703125 -0.25 C 0.742188 -0.300781 0.765625 -0.375 0.765625 -0.46875 C 0.765625 -0.570312 0.742188 -0.644531 0.703125 -0.6875 C 0.660156 -0.738281 0.609375 -0.765625 0.546875 -0.765625 C 0.472656 -0.765625 0.414062 -0.738281 0.375 -0.6875 C 0.34375 -0.644531 0.328125 -0.570312 0.328125 -0.46875 C 0.328125 -0.375 0.34375 -0.300781 0.375 -0.25 C 0.414062 -0.207031 0.472656 -0.1875 0.546875 -0.1875 Z M 0.546875 -0.1875 "/></g></g><g transform="translate(10.201973, 2.95687)"><g><path d="M 0.25 -1.0625 C 0.207031 -1.0625 0.171875 -1.070312 0.140625 -1.09375 C 0.117188 -1.125 0.109375 -1.160156 0.109375 -1.203125 C 0.109375 -1.242188 0.117188 -1.273438 0.140625 -1.296875 C 0.171875 -1.328125 0.207031 -1.34375 0.25 -1.34375 C 0.28125 -1.34375 0.304688 -1.335938 0.328125 -1.328125 C 0.347656 -1.316406 0.363281 -1.300781 0.375 -1.28125 C 0.394531 -1.257812 0.40625 -1.234375 0.40625 -1.203125 C 0.40625 -1.179688 0.394531 -1.15625 0.375 -1.125 C 0.363281 -1.101562 0.347656 -1.085938 0.328125 -1.078125 C 0.304688 -1.066406 0.28125 -1.0625 0.25 -1.0625 Z M 0.140625 0 L 0.140625 -0.953125 L 0.375 -0.953125 L 0.375 0 Z M 0.140625 0 "/></g></g><g transform="translate(10.712266, 2.95687)"><g><path d="M 0.140625 0 L 0.140625 -0.953125 L 0.359375 -0.953125 L 0.359375 -0.8125 L 0.390625 -0.8125 C 0.441406 -0.914062 0.535156 -0.96875 0.671875 -0.96875 C 0.785156 -0.96875 0.863281 -0.9375 0.90625 -0.875 C 0.957031 -0.820312 0.984375 -0.738281 0.984375 -0.625 L 0.984375 0 L 0.75 0 L 0.75 -0.59375 C 0.75 -0.65625 0.734375 -0.695312 0.703125 -0.71875 C 0.679688 -0.75 0.644531 -0.765625 0.59375 -0.765625 C 0.519531 -0.765625 0.460938 -0.742188 0.421875 -0.703125 C 0.390625 -0.660156 0.375 -0.59375 0.375 -0.5 L 0.375 0 Z M 0.140625 0 "/></g></g><g transform="translate(11.822196, 2.95687)"><g><path d="M 0.5 0.40625 C 0.332031 0.40625 0.210938 0.378906 0.140625 0.328125 C 0.0664062 0.285156 0.03125 0.222656 0.03125 0.140625 C 0.03125 0.0859375 0.046875 0.046875 0.078125 0.015625 C 0.109375 -0.015625 0.15625 -0.0351562 0.21875 -0.046875 L 0.21875 -0.0625 C 0.1875 -0.0820312 0.160156 -0.101562 0.140625 -0.125 C 0.128906 -0.144531 0.125 -0.175781 0.125 -0.21875 C 0.125 -0.289062 0.175781 -0.335938 0.28125 -0.359375 L 0.28125 -0.390625 C 0.226562 -0.410156 0.1875 -0.441406 0.15625 -0.484375 C 0.132812 -0.535156 0.125 -0.59375 0.125 -0.65625 C 0.125 -0.71875 0.132812 -0.769531 0.15625 -0.8125 C 0.1875 -0.863281 0.226562 -0.898438 0.28125 -0.921875 C 0.34375 -0.953125 0.414062 -0.96875 0.5 -0.96875 C 0.570312 -0.96875 0.632812 -0.953125 0.6875 -0.921875 C 0.71875 -0.960938 0.734375 -1.015625 0.734375 -1.078125 L 0.75 -1.09375 L 0.921875 -1.046875 C 0.921875 -0.992188 0.910156 -0.953125 0.890625 -0.921875 C 0.867188 -0.898438 0.832031 -0.875 0.78125 -0.84375 L 0.78125 -0.828125 C 0.84375 -0.773438 0.875 -0.707031 0.875 -0.625 C 0.875 -0.570312 0.859375 -0.519531 0.828125 -0.46875 C 0.796875 -0.425781 0.75 -0.390625 0.6875 -0.359375 C 0.632812 -0.335938 0.570312 -0.328125 0.5 -0.328125 L 0.453125 -0.328125 C 0.429688 -0.328125 0.414062 -0.328125 0.40625 -0.328125 C 0.382812 -0.328125 0.367188 -0.320312 0.359375 -0.3125 C 0.347656 -0.300781 0.34375 -0.285156 0.34375 -0.265625 C 0.34375 -0.242188 0.347656 -0.226562 0.359375 -0.21875 C 0.378906 -0.207031 0.40625 -0.203125 0.4375 -0.203125 L 0.65625 -0.1875 C 0.863281 -0.175781 0.96875 -0.0859375 0.96875 0.078125 C 0.96875 0.140625 0.953125 0.191406 0.921875 0.234375 C 0.890625 0.285156 0.835938 0.328125 0.765625 0.359375 C 0.691406 0.390625 0.601562 0.40625 0.5 0.40625 Z M 0.5 -0.484375 C 0.539062 -0.484375 0.570312 -0.5 0.59375 -0.53125 C 0.625 -0.5625 0.640625 -0.597656 0.640625 -0.640625 C 0.640625 -0.691406 0.625 -0.726562 0.59375 -0.75 C 0.570312 -0.78125 0.539062 -0.796875 0.5 -0.796875 C 0.445312 -0.796875 0.40625 -0.78125 0.375 -0.75 C 0.351562 -0.726562 0.34375 -0.691406 0.34375 -0.640625 C 0.34375 -0.585938 0.351562 -0.546875 0.375 -0.515625 C 0.40625 -0.492188 0.445312 -0.484375 0.5 -0.484375 Z M 0.5 0.234375 C 0.570312 0.234375 0.628906 0.21875 0.671875 0.1875 C 0.710938 0.164062 0.734375 0.140625 0.734375 0.109375 C 0.734375 0.078125 0.722656 0.0507812 0.703125 0.03125 C 0.679688 0.0195312 0.648438 0.015625 0.609375 0.015625 L 0.421875 0.015625 C 0.410156 0.015625 0.398438 0.0078125 0.390625 0 C 0.347656 0 0.316406 0.0078125 0.296875 0.03125 C 0.273438 0.0507812 0.265625 0.078125 0.265625 0.109375 C 0.265625 0.148438 0.28125 0.179688 0.3125 0.203125 C 0.351562 0.222656 0.414062 0.234375 0.5 0.234375 Z M 0.5 0.234375 "/></g></g></g></g></g></g></svg>